# This file uses centimeters as units for non-parametric coordinates.

mtllib ±Ä¨úµo¥ú.mtl
g default
v -1.000000 -1.000000 0.000000
v -0.951057 -1.000000 0.309017
v -0.809017 -1.000000 0.587785
v -0.587785 -1.000000 0.809017
v -0.309017 -1.000000 0.951057
v -0.000000 -1.000000 1.000000
v 0.309017 -1.000000 0.951057
v 0.587785 -1.000000 0.809017
v 0.809017 -1.000000 0.587785
v 0.951057 -1.000000 0.309017
v 1.000000 -1.000000 0.000000
v -1.000000 1.000000 0.000000
v -0.951057 1.000000 0.309017
v -0.809017 1.000000 0.587785
v -0.587785 1.000000 0.809017
v -0.309017 1.000000 0.951057
v -0.000000 1.000000 1.000000
v 0.309017 1.000000 0.951057
v 0.587785 1.000000 0.809017
v 0.809017 1.000000 0.587785
v 0.951057 1.000000 0.309017
v 1.000000 1.000000 0.000000
vt 0.450761 0.010392
vt 0.500000 0.010392
vt 0.549238 0.010392
vt 0.598477 0.010392
vt 0.647715 0.010392
vt 0.696954 0.010392
vt 0.746192 0.010392
vt 0.795431 0.010392
vt 0.844669 0.010392
vt 0.893908 0.010392
vt 0.943146 0.010392
vt 0.450761 0.990548
vt 0.500000 0.990548
vt 0.549238 0.990548
vt 0.598477 0.990548
vt 0.647715 0.990548
vt 0.696954 0.990548
vt 0.746192 0.990548
vt 0.795431 0.990548
vt 0.844669 0.990548
vt 0.893908 0.990548
vt 0.943146 0.990548
vn -0.987688 0.000000 0.156434
vn -0.951057 0.000000 0.309017
vn -0.951057 0.000000 0.309017
vn -0.987688 0.000000 0.156434
vn -0.809017 0.000000 0.587785
vn -0.809017 0.000000 0.587785
vn -0.587785 0.000000 0.809017
vn -0.587785 0.000000 0.809017
vn -0.309017 0.000000 0.951057
vn -0.309017 0.000000 0.951057
vn 0.000000 0.000000 1.000000
vn 0.000000 0.000000 1.000000
vn 0.309017 0.000000 0.951057
vn 0.309017 0.000000 0.951057
vn 0.587785 0.000000 0.809017
vn 0.587785 0.000000 0.809017
vn 0.809017 0.000000 0.587785
vn 0.809017 0.000000 0.587785
vn 0.951057 0.000000 0.309017
vn 0.951057 0.000000 0.309017
vn 0.987688 0.000000 0.156434
vn 0.987688 0.000000 0.156434
s 1
g pCylinder1
usemtl initialShadingGroup
f 1/1/1 2/2/2 13/13/3 12/12/4
f 2/2/2 3/3/5 14/14/6 13/13/3
f 3/3/5 4/4/7 15/15/8 14/14/6
f 4/4/7 5/5/9 16/16/10 15/15/8
f 5/5/9 6/6/11 17/17/12 16/16/10
f 6/6/11 7/7/13 18/18/14 17/17/12
f 7/7/13 8/8/15 19/19/16 18/18/14
f 8/8/15 9/9/17 20/20/18 19/19/16
f 9/9/17 10/10/19 21/21/20 20/20/18
f 10/10/19 11/11/21 22/22/22 21/21/20
