# This file uses centimeters as units for non-parametric coordinates.

mtllib ·w¯t.mtl
g default
v 0.021294 0.342020 -4.379974
v -1.332192 0.342020 -4.165603
v -2.553190 0.342020 -3.543473
v -3.522179 0.342020 -2.574484
v -4.144308 0.342020 -1.353486
v -4.358679 0.342020 0.000000
v -4.144308 0.342020 1.353486
v -3.522179 0.342020 2.574484
v -2.553189 0.342020 3.543473
v -1.332192 0.342020 4.165602
v 0.021294 0.342020 4.379973
v 0.021294 1.743611 -4.379974
v -1.332192 1.743611 -4.165603
v -2.553190 1.743611 -3.543473
v -3.522179 1.743611 -2.574484
v -4.144308 1.743611 -1.353486
v -4.358679 1.743611 0.000000
v -4.144308 1.743611 1.353486
v -3.522179 1.743611 2.574484
v -2.553189 1.743611 3.543473
v -1.332192 1.743611 4.165602
v 0.021294 1.743611 4.379973
v 0.406960 1.042815 -5.151306
v -1.184881 1.042815 -4.899184
v -2.620902 1.042815 -4.167494
v -3.760534 1.042815 -3.027861
v -4.492223 1.042815 -1.591841
v -4.744345 1.042815 0.000000
v -4.492223 1.042815 1.591841
v -3.760533 1.042815 3.027861
v -2.620901 1.042815 4.167494
v -1.184881 1.042815 4.899183
v 0.406960 1.042815 5.151305
vt 0.014360 0.010608
vt 0.111338 0.010608
vt 0.208316 0.010608
vt 0.305295 0.010608
vt 0.402273 0.010608
vt 0.499251 0.010608
vt 0.596230 0.010608
vt 0.693208 0.010608
vt 0.790186 0.010608
vt 0.887164 0.010608
vt 0.984143 0.010608
vt 0.014360 0.985952
vt 0.111338 0.985952
vt 0.208317 0.985952
vt 0.305295 0.985952
vt 0.402273 0.985952
vt 0.499252 0.985952
vt 0.596230 0.985952
vt 0.693208 0.985952
vt 0.790186 0.985952
vt 0.887165 0.985952
vt 0.984143 0.985952
vt 0.014360 0.498280
vt 0.111338 0.498280
vt 0.208316 0.498280
vt 0.305295 0.498280
vt 0.402273 0.498280
vt 0.499251 0.498280
vt 0.596230 0.498280
vt 0.693208 0.498280
vt 0.790186 0.498280
vt 0.887165 0.498280
vt 0.984143 0.498280
vn -0.156434 0.000000 -0.987688
vn -0.271426 0.000000 -0.962459
vn -0.252270 0.673889 -0.694430
vn -0.110560 0.707464 -0.698048
vn -0.558288 -0.000000 -0.829647
vn -0.487635 0.606396 -0.628089
vn -0.792291 -0.000000 -0.610143
vn -0.691344 0.543292 -0.476317
vn -0.946194 -0.000000 -0.323599
vn -0.828182 0.498366 -0.256410
vn -1.000000 0.000000 0.000000
vn -0.876095 0.482138 0.000000
vn -0.946194 0.000000 0.323599
vn -0.828182 0.498366 0.256410
vn -0.792291 0.000000 0.610144
vn -0.691344 0.543292 0.476317
vn -0.558288 -0.000000 0.829647
vn -0.487635 0.606396 0.628089
vn -0.271426 -0.000000 0.962459
vn -0.252270 0.673889 0.694430
vn -0.156434 -0.000000 0.987688
vn -0.110560 0.707464 0.698048
vn -0.110560 -0.707464 -0.698048
vn -0.252270 -0.673889 -0.694430
vn -0.487635 -0.606396 -0.628089
vn -0.691344 -0.543292 -0.476317
vn -0.828181 -0.498367 -0.256410
vn -0.876095 -0.482138 -0.000000
vn -0.828181 -0.498367 0.256410
vn -0.691344 -0.543292 0.476317
vn -0.487635 -0.606396 0.628089
vn -0.252270 -0.673889 0.694430
vn -0.110560 -0.707464 0.698048
s 1
g pCylinder1
usemtl initialShadingGroup
f 23/23/1 24/24/2 13/13/3 12/12/4
f 24/24/2 25/25/5 14/14/6 13/13/3
f 25/25/5 26/26/7 15/15/8 14/14/6
f 26/26/7 27/27/9 16/16/10 15/15/8
f 27/27/9 28/28/11 17/17/12 16/16/10
f 28/28/11 29/29/13 18/18/14 17/17/12
f 29/29/13 30/30/15 19/19/16 18/18/14
f 30/30/15 31/31/17 20/20/18 19/19/16
f 31/31/17 32/32/19 21/21/20 20/20/18
f 32/32/19 33/33/21 22/22/22 21/21/20
f 1/1/23 2/2/24 24/24/2 23/23/1
f 2/2/24 3/3/25 25/25/5 24/24/2
f 3/3/25 4/4/26 26/26/7 25/25/5
f 4/4/26 5/5/27 27/27/9 26/26/7
f 5/5/27 6/6/28 28/28/11 27/27/9
f 6/6/28 7/7/29 29/29/13 28/28/11
f 7/7/29 8/8/30 30/30/15 29/29/13
f 8/8/30 9/9/31 31/31/17 30/30/15
f 9/9/31 10/10/32 32/32/19 31/31/17
f 10/10/32 11/11/33 33/33/21 32/32/19
